<svg class="svg-icon" style="width: 1.30859375em; height: 1em;vertical-align: middle;fill: currentColor;overflow: hidden;" viewBox="0 0 1340 1024" version="1.1" xmlns="http://www.w3.org/2000/svg"><path d="M0 172.633732C0 78.72132 76.177155 2.596948 169.572289 2.596948h548.019464c93.384577 0 169.561732 76.388289 169.561732 170.036784v110.064165a33.612536 33.612536 0 0 1-33.580866 33.675876 33.612536 33.612536 0 0 1-33.591423-33.675876V172.633732c0-56.689485-46.132784-102.948948-102.663918-102.948948H169.572289c-56.531134 0-102.674474 46.270021-102.674475 102.948948v679.555959c0 56.678928 46.14334 102.948948 102.674475 102.948948h547.470515c56.520577 0 102.663918-46.270021 102.663918-102.948948V742.136082a33.612536 33.612536 0 0 1 33.591422-33.675876 33.612536 33.612536 0 0 1 33.580866 33.675876v110.064165c0 93.637938-76.177155 170.026227-169.561732 170.026227H169.572289C76.177155 1022.215918 0 945.827629 0 852.189691V172.633732zM1052.355299 765.677526a33.116371 33.116371 0 0 1 0-47.093444l172.021443-172.496494H596.89699a33.612536 33.612536 0 0 1-33.580866-33.675877 33.612536 33.612536 0 0 1 33.580866-33.675876h627.754226l-172.021443-172.496495a33.443629 33.443629 0 0 1 0-47.367917 33.232495 33.232495 0 0 1 47.241237 0l229.080413 229.713814a33.443629 33.443629 0 0 1 0 47.367918l-229.080413 229.713814a33.211381 33.211381 0 0 1-23.752577 9.859959c-8.740948 0-17.207423-3.283134-23.763134-9.849402z" fill="#20A0FF" /></svg>